<?xml version="1.0" encoding="utf-8"?>
<!-- Generator: Adobe Illustrator 16.0.0, SVG Export Plug-In . SVG Version: 6.00 Build 0)  -->
<!DOCTYPE svg PUBLIC "-//W3C//DTD SVG 1.1//EN" "http://www.w3.org/Graphics/SVG/1.1/DTD/svg11.dtd">
<svg version="1.1" id="Capa_1" xmlns="http://www.w3.org/2000/svg" xmlns:xlink="http://www.w3.org/1999/xlink" x="0px" y="0px"
	 width="63.756px" height="63.75px" viewBox="0 0 63.756 63.75" enable-background="new 0 0 63.756 63.75" xml:space="preserve">
<path d="M55.006,12.5c0,2.07-1.68,3.75-3.75,3.75s-3.75-1.68-3.75-3.75s1.68-3.75,3.75-3.75S55.006,10.43,55.006,12.5z M63.756,1.25
	c0-0.703-0.625-1.25-1.328-1.25c-13.594,0-21.055,3.125-30.82,12.852c-2.227,2.266-4.531,4.844-6.875,7.617L9.928,21.25
	c-0.391,0.039-0.781,0.273-1.016,0.625l-8.75,15c-0.273,0.469-0.195,1.094,0.195,1.523l2.5,2.5c0.234,0.234,0.586,0.352,0.898,0.352
	c0.117,0,0.234,0,0.352-0.039l10.781-3.32l10.977,10.977l-3.32,10.781c-0.117,0.43,0,0.898,0.313,1.25l2.5,2.5
	c0.273,0.234,0.586,0.352,0.898,0.352c0.234,0,0.43-0.039,0.625-0.156l15-8.75c0.352-0.234,0.586-0.625,0.625-1.016l0.781-14.805
	c2.773-2.344,5.352-4.648,7.617-6.875C60.162,22.852,63.756,14.219,63.756,1.25z"/>
</svg>
