<?xml version="1.0" encoding="utf-8"?>
<!-- Generator: Adobe Illustrator 16.0.0, SVG Export Plug-In . SVG Version: 6.00 Build 0)  -->
<!DOCTYPE svg PUBLIC "-//W3C//DTD SVG 1.1//EN" "http://www.w3.org/Graphics/SVG/1.1/DTD/svg11.dtd">
<svg version="1.1" xmlns="http://www.w3.org/2000/svg" xmlns:xlink="http://www.w3.org/1999/xlink" x="0px" y="0px" width="30px"
	 height="30px" viewBox="0 0 30 30" enable-background="new 0 0 30 30" xml:space="preserve">
<g id="relleno">
	<path fill-rule="evenodd" clip-rule="evenodd" d="M15,0c8.284,0,15,6.716,15,15s-6.716,15-15,15S0,23.284,0,15
		S6.716,0,15,0z"/>
</g>
<g id="Capa_1">
	<path fill="#FFFFFF" d="M16.319,19.366c0,1.562-1.481,2.098-2.812,2.098c-1.429,0-3.356-0.661-3.356-2.374
		c0-1.857,2.178-2.321,3.642-2.321c0.152,0,0.295,0,0.446,0.018C15.15,17.42,16.319,18.116,16.319,19.366z M15.248,11.671
		c0,1.09-0.419,1.974-1.643,1.974c-1.589,0-2.481-2.125-2.481-3.481c0-1.054,0.571-2.089,1.741-2.089
		C14.517,8.074,15.248,10.314,15.248,11.671z M14.079,7.432c-0.563,0-1.125,0.063-1.669,0.178c-1.625,0.357-2.938,1.804-2.938,3.5
		c0,1.794,1.5,3.07,3.231,3.07c0.205,0,0.411-0.018,0.625-0.045c-0.089,0.277-0.196,0.474-0.196,0.768c0,0.5,0.276,0.946,0.571,1.33
		c-1.598,0.045-4.079,0.455-4.874,2.063C8.643,18.67,8.5,19.08,8.5,19.5c0,2.07,2.41,2.785,4.079,2.785
		c1.321,0,2.723-0.286,3.749-1.17c0.759-0.66,1.25-1.49,1.25-2.518c0-2.498-2.678-2.954-2.678-4.105
		c0-1.178,1.999-1.356,1.999-3.723c0-1-0.446-2.08-1.33-2.633h1.205l1.205-0.705H14.079z M23.354,9.717h-2.285V7.432h-1.143v2.285
		h-2.285v1.143h2.285v2.285h1.143v-2.285h2.285V9.717z"/>
</g>
</svg>
