<?xml version="1.0" encoding="utf-8"?>
<!-- Generator: Adobe Illustrator 16.0.0, SVG Export Plug-In . SVG Version: 6.00 Build 0)  -->
<!DOCTYPE svg PUBLIC "-//W3C//DTD SVG 1.1//EN" "http://www.w3.org/Graphics/SVG/1.1/DTD/svg11.dtd">
<svg version="1.1" xmlns="http://www.w3.org/2000/svg" xmlns:xlink="http://www.w3.org/1999/xlink" x="0px" y="0px" width="30px"
	 height="30px" viewBox="0 0 30 30" enable-background="new 0 0 30 30" xml:space="preserve">
<g id="Capa_2">
	<path fill-rule="evenodd" clip-rule="evenodd" fill="#9D829A" d="M15,0c8.284,0,15,6.716,15,15s-6.716,15-15,15S0,23.284,0,15
		S6.716,0,15,0z"/>
</g>
<g id="Capa_1">
	<path fill="#FFFFFF" d="M22.961,9.931c-0.518,0.224-1.08,0.384-1.66,0.446c0.598-0.357,1.053-0.919,1.268-1.588
		c-0.554,0.329-1.179,0.57-1.83,0.695c-0.527-0.563-1.276-0.91-2.107-0.91c-1.598,0-2.883,1.294-2.883,2.883
		c0,0.223,0.027,0.446,0.071,0.66c-2.392-0.124-4.525-1.268-5.944-3.017c-0.25,0.429-0.394,0.919-0.394,1.455
		c0,0.999,0.509,1.884,1.286,2.401c-0.474-0.018-0.92-0.152-1.304-0.366c0,0.009,0,0.026,0,0.036c0,1.401,0.991,2.562,2.312,2.829
		c-0.24,0.063-0.499,0.099-0.758,0.099c-0.188,0-0.366-0.019-0.545-0.045c0.366,1.143,1.428,1.973,2.695,2
		c-0.99,0.775-2.231,1.231-3.579,1.231c-0.241,0-0.464-0.009-0.696-0.036C10.169,19.526,11.687,20,13.32,20
		c5.302,0,8.203-4.392,8.203-8.203c0-0.126,0-0.25-0.009-0.375C22.077,11.011,22.568,10.502,22.961,9.931z"/>
</g>
</svg>
