<?xml version="1.0" encoding="utf-8"?>
<!-- Generator: Adobe Illustrator 16.0.0, SVG Export Plug-In . SVG Version: 6.00 Build 0)  -->
<!DOCTYPE svg PUBLIC "-//W3C//DTD SVG 1.1//EN" "http://www.w3.org/Graphics/SVG/1.1/DTD/svg11.dtd">
<svg version="1.1" id="Capa_1" xmlns="http://www.w3.org/2000/svg" xmlns:xlink="http://www.w3.org/1999/xlink" x="0px" y="0px"
	 width="63.945px" height="63.945px" viewBox="0 0 63.945 63.945" enable-background="new 0 0 63.945 63.945" xml:space="preserve">
<path d="M45.43,22.695l-4.18-4.18L52.695,7.07l4.18,4.18L45.43,22.695z M62.891,11.25c0-0.665-0.234-1.289-0.703-1.758l-7.734-7.734
	c-0.469-0.469-1.094-0.704-1.758-0.704s-1.289,0.235-1.758,0.704L0.703,51.992C0.234,52.461,0,53.086,0,53.75
	s0.234,1.289,0.703,1.758l7.734,7.734c0.469,0.469,1.094,0.703,1.758,0.703c0.665,0,1.29-0.234,1.758-0.703l50.235-50.234
	C62.656,12.539,62.891,11.914,62.891,11.25z M10.117,3.828L8.945,0L7.773,3.828L3.945,5l3.829,1.172L8.945,10l1.172-3.828L13.945,5
	L10.117,3.828z M23.789,10.156L21.445,2.5l-2.343,7.656L11.445,12.5l7.656,2.344l2.343,7.656l2.344-7.656l7.656-2.344L23.789,10.156
	z M60.117,28.828L58.945,25l-1.172,3.828L53.945,30l3.828,1.172L58.945,35l1.172-3.828L63.945,30L60.117,28.828z M35.117,3.828
	L33.945,0l-1.172,3.828L28.945,5l3.829,1.172L33.945,10l1.172-3.828L38.945,5L35.117,3.828z"/>
</svg>
