<?xml version="1.0" encoding="utf-8"?>
<!-- Generator: Adobe Illustrator 16.0.0, SVG Export Plug-In . SVG Version: 6.00 Build 0)  -->
<!DOCTYPE svg PUBLIC "-//W3C//DTD SVG 1.1//EN" "http://www.w3.org/Graphics/SVG/1.1/DTD/svg11.dtd">
<svg version="1.1" xmlns="http://www.w3.org/2000/svg" xmlns:xlink="http://www.w3.org/1999/xlink" x="0px" y="0px" width="30px"
	 height="30px" viewBox="0 0 30 30" enable-background="new 0 0 30 30" xml:space="preserve">
<g id="relleno">
	<path fill-rule="evenodd" clip-rule="evenodd" d="M15,0c8.284,0,15,6.716,15,15s-6.716,15-15,15S0,23.284,0,15
		S6.716,0,15,0z"/>
</g>
<g id="Capa_1">
	<path fill="#FFFFFF" d="M11.615,12.867H8.67v8.847h2.945V12.867z M11.803,10.137c-0.009-0.866-0.634-1.527-1.643-1.527
		c-1,0-1.66,0.661-1.66,1.527c0,0.848,0.634,1.526,1.624,1.526h0.019l0,0C11.169,11.663,11.812,10.984,11.803,10.137z
		 M22.211,16.644c0-2.714-1.446-3.981-3.383-3.981c-1.589,0-2.285,0.885-2.669,1.491h0.018v-1.286H13.24c0,0,0.035,0.831,0,8.847
		l0,0h2.937v-4.937c0-0.268,0.026-0.526,0.098-0.723c0.215-0.527,0.696-1.071,1.509-1.071c1.063,0,1.491,0.813,1.491,1.999v4.731
		h2.937V16.644z"/>
</g>
</svg>
