<?xml version="1.0" encoding="utf-8"?>
<!-- Generator: Adobe Illustrator 16.0.0, SVG Export Plug-In . SVG Version: 6.00 Build 0)  -->
<!DOCTYPE svg PUBLIC "-//W3C//DTD SVG 1.1//EN" "http://www.w3.org/Graphics/SVG/1.1/DTD/svg11.dtd">
<svg version="1.1" id="Capa_1" xmlns="http://www.w3.org/2000/svg" xmlns:xlink="http://www.w3.org/1999/xlink" x="0px" y="0px"
	 width="75px" height="68.789px" viewBox="0 0 75 68.789" enable-background="new 0 0 75 68.789" xml:space="preserve">
<path d="M35,34.375c0,5.508-4.492,10-10,10s-10-4.492-10-10s4.492-10,10-10S35,28.867,35,34.375z M65,54.375c0,2.734-2.227,5-5,5
	c-2.734,0-5-2.227-5-5c0-2.734,2.266-5,5-5S65,51.641,65,54.375z M65,14.375c0,2.734-2.227,5-5,5c-2.734,0-5-2.227-5-5
	c0-2.734,2.266-5,5-5S65,11.641,65,14.375z M50,30.82c0-0.547-0.391-1.055-0.938-1.172l-5.938-0.898
	c-0.352-1.094-0.82-2.148-1.328-3.203c1.094-1.523,2.266-2.93,3.398-4.453c0.156-0.234,0.273-0.469,0.273-0.742
	c0-1.094-4.609-5.313-5.625-6.25c-0.234-0.196-0.508-0.313-0.82-0.313c-0.273,0-0.547,0.078-0.781,0.273l-4.609,3.477
	c-0.938-0.469-1.914-0.898-2.93-1.211l-0.898-5.976c-0.078-0.547-0.625-0.977-1.172-0.977h-7.266c-0.547,0-1.016,0.391-1.172,0.938
	c-0.508,1.914-0.703,4.063-0.898,6.016c-1.055,0.352-2.031,0.742-3.008,1.25l-4.492-3.516c-0.234-0.156-0.508-0.273-0.82-0.273
	c-1.133,0-5.508,4.727-6.289,5.781c-0.195,0.234-0.273,0.508-0.273,0.781s0.117,0.547,0.273,0.781
	c1.25,1.484,2.422,2.93,3.516,4.492c-0.508,0.977-0.938,1.953-1.25,2.969l-6.055,0.938C0.391,29.609,0,30.195,0,30.703v7.227
	c0,0.547,0.391,1.055,0.938,1.133l5.938,0.938c0.352,1.093,0.82,2.147,1.367,3.202c-1.133,1.523-2.305,2.969-3.438,4.453
	c-0.156,0.234-0.273,0.469-0.273,0.742c0,1.133,4.609,5.313,5.625,6.25c0.234,0.195,0.508,0.313,0.82,0.313
	c0.273,0,0.586-0.078,0.781-0.273l4.609-3.477c0.938,0.469,1.914,0.898,2.93,1.211l0.898,5.977c0.078,0.547,0.625,0.977,1.172,0.977
	h7.266c0.547,0,1.016-0.391,1.172-0.938c0.508-1.914,0.703-4.063,0.898-6.055c1.055-0.313,2.031-0.703,3.008-1.211l4.492,3.516
	c0.234,0.156,0.508,0.273,0.82,0.273c1.133,0,5.508-4.766,6.289-5.82c0.195-0.195,0.273-0.469,0.273-0.742
	c0-0.313-0.117-0.546-0.273-0.781c-1.25-1.484-2.422-2.93-3.516-4.492c0.508-0.977,0.938-1.953,1.25-2.969l6.055-0.938
	C49.609,39.141,50,38.555,50,38.047V30.82z M75,51.641c0-0.585-5.039-1.133-5.82-1.211c-0.313-0.703-0.703-1.406-1.172-2.031
	C68.359,47.617,70,43.711,70,43.008c0-0.078-0.039-0.195-0.156-0.273c-0.469-0.273-4.648-2.733-4.844-2.733l-0.234,0.077
	c-1.328,1.328-2.5,2.852-3.594,4.375c-0.391-0.039-0.781-0.078-1.172-0.078s-0.781,0.039-1.172,0.078
	c-0.391-0.586-3.32-4.452-3.828-4.452c-0.195,0-4.375,2.499-4.844,2.733C50.039,42.813,50,42.93,50,43.008
	c0,0.664,1.641,4.609,1.992,5.391c-0.469,0.625-0.859,1.328-1.172,2.031C50.039,50.508,45,51.056,45,51.641v5.469
	c0,0.586,5.039,1.133,5.82,1.211c0.313,0.742,0.703,1.406,1.172,2.031C51.641,61.133,50,65.078,50,65.742
	c0,0.078,0.039,0.195,0.156,0.273c0.469,0.273,4.648,2.773,4.844,2.773c0.508,0,3.438-3.906,3.828-4.492
	c0.391,0.039,0.781,0.078,1.172,0.078s0.781-0.039,1.172-0.078c0.391,0.586,3.32,4.492,3.828,4.492c0.195,0,4.375-2.5,4.844-2.773
	C69.961,65.938,70,65.859,70,65.742c0-0.703-1.641-4.609-1.992-5.391c0.469-0.625,0.859-1.289,1.172-2.031
	c0.781-0.078,5.82-0.625,5.82-1.211V51.641z M75,11.641c0-0.586-5.039-1.133-5.82-1.211c-0.313-0.703-0.703-1.406-1.172-2.031
	C68.359,7.617,70,3.711,70,3.008c0-0.078-0.039-0.195-0.156-0.273C69.375,2.461,65.195,0,65,0l-0.234,0.078
	c-1.328,1.328-2.5,2.852-3.594,4.375C60.781,4.414,60.391,4.375,60,4.375s-0.781,0.039-1.172,0.079C58.438,3.867,55.508,0,55,0
	c-0.195,0-4.375,2.5-4.844,2.734C50.039,2.813,50,2.93,50,3.008c0,0.664,1.641,4.609,1.992,5.391
	c-0.469,0.625-0.859,1.328-1.172,2.031C50.039,10.508,45,11.055,45,11.641v5.469c0,0.586,5.039,1.133,5.82,1.211
	c0.313,0.742,0.703,1.406,1.172,2.031C51.641,21.133,50,25.078,50,25.742c0,0.078,0.039,0.195,0.156,0.273
	c0.469,0.273,4.648,2.773,4.844,2.773c0.508,0,3.438-3.906,3.828-4.492c0.391,0.039,0.781,0.078,1.172,0.078
	s0.781-0.039,1.172-0.078c0.391,0.586,3.32,4.492,3.828,4.492c0.195,0,4.375-2.5,4.844-2.773C69.961,25.938,70,25.859,70,25.742
	c0-0.703-1.641-4.609-1.992-5.391c0.469-0.625,0.859-1.289,1.172-2.031c0.781-0.079,5.82-0.625,5.82-1.211V11.641z"/>
</svg>
