<?xml version="1.0" encoding="utf-8"?>
<!-- Generator: Adobe Illustrator 16.0.0, SVG Export Plug-In . SVG Version: 6.00 Build 0)  -->
<!DOCTYPE svg PUBLIC "-//W3C//DTD SVG 1.1//EN" "http://www.w3.org/Graphics/SVG/1.1/DTD/svg11.dtd">
<svg version="1.1" id="Capa_1" xmlns="http://www.w3.org/2000/svg" xmlns:xlink="http://www.w3.org/1999/xlink" x="0px" y="0px"
	 width="45.719px" height="68.578px" viewBox="0 0 45.719 68.578" enable-background="new 0 0 45.719 68.578" xml:space="preserve">
<path d="M32.86,20.002c0-4.956-5.849-7.145-10.001-7.145c-0.759,0-1.429,0.671-1.429,1.429c0,0.759,0.669,1.429,1.429,1.429
	c2.366,0,7.144,1.206,7.144,4.287c0,0.759,0.669,1.429,1.429,1.429C32.19,21.431,32.86,20.761,32.86,20.002z M40.004,20.002
	c0,2.857-1.161,5.849-3.036,8.036c-0.849,0.982-1.831,1.92-2.724,2.947c-3.17,3.795-5.849,8.259-6.295,13.305H17.77
	c-0.446-5.046-3.125-9.51-6.295-13.305c-0.893-1.027-1.875-1.964-2.723-2.947c-1.875-2.188-3.036-5.179-3.036-8.036
	c0-8.93,9.063-14.287,17.145-14.287S40.004,11.072,40.004,20.002z M45.719,20.002C45.719,7.857,34.155,0,22.859,0S0,7.857,0,20.002
	c0,4.599,1.518,8.572,4.599,11.965c3.081,3.393,7.144,8.17,7.5,12.948c-1.294,0.759-2.098,2.188-2.098,3.661
	c0,1.071,0.402,2.099,1.116,2.857c-0.714,0.759-1.116,1.786-1.116,2.857c0,1.473,0.759,2.813,2.009,3.616
	c-0.357,0.625-0.581,1.384-0.581,2.099c0,2.902,2.277,4.286,4.867,4.286c1.161,2.589,3.75,4.286,6.563,4.286
	c2.813,0,5.402-1.697,6.563-4.286c2.59,0,4.867-1.384,4.867-4.286c0-0.715-0.223-1.474-0.58-2.099
	c1.25-0.804,2.009-2.144,2.009-3.616c0-1.071-0.401-2.099-1.116-2.857c0.715-0.759,1.116-1.786,1.116-2.857
	c0-1.474-0.804-2.902-2.099-3.661c0.357-4.777,4.42-9.555,7.501-12.948C44.201,28.574,45.719,24.601,45.719,20.002z"/>
</svg>
