<?xml version="1.0" encoding="utf-8"?>
<!-- Generator: Adobe Illustrator 16.0.0, SVG Export Plug-In . SVG Version: 6.00 Build 0)  -->
<!DOCTYPE svg PUBLIC "-//W3C//DTD SVG 1.1//EN" "http://www.w3.org/Graphics/SVG/1.1/DTD/svg11.dtd">
<svg version="1.1" id="Capa_1" xmlns="http://www.w3.org/2000/svg" xmlns:xlink="http://www.w3.org/1999/xlink" x="0px" y="0px"
	 width="50px" height="49.999px" viewBox="0 0 50 49.999" enable-background="new 0 0 50 49.999" xml:space="preserve">
<g>
	<path fill="none" d="M25,2C12.318,2,2,12.317,2,25c0,12.681,10.318,22.999,23,22.999c12.683,0,23-10.318,23-22.999
		C48,12.317,37.683,2,25,2z M36.233,25.809H25.888v10.872h-1.871V25.809h-10.32v-1.752h10.32V13.233h1.871v10.824h10.346V25.809z"/>
	<path fill="#FFFFFF" d="M25,0C11.215,0,0,11.215,0,25c0,13.784,11.215,24.999,25,24.999S50,38.784,50,25C50,11.215,38.785,0,25,0z
		 M25,47.999C12.318,47.999,2,37.681,2,25C2,12.317,12.318,2,25,2c12.683,0,23,10.317,23,23C48,37.681,37.683,47.999,25,47.999z"/>
	<polygon fill="#FFFFFF" points="25.888,13.233 24.017,13.233 24.017,24.057 13.697,24.057 13.697,25.809 24.017,25.809 
		24.017,36.681 25.888,36.681 25.888,25.809 36.233,25.809 36.233,24.057 25.888,24.057 	"/>
</g>
</svg>
