<?xml version="1.0" encoding="utf-8"?>
<!-- Generator: Adobe Illustrator 16.0.0, SVG Export Plug-In . SVG Version: 6.00 Build 0)  -->
<!DOCTYPE svg PUBLIC "-//W3C//DTD SVG 1.1//EN" "http://www.w3.org/Graphics/SVG/1.1/DTD/svg11.dtd">
<svg version="1.1" id="Capa_1" xmlns="http://www.w3.org/2000/svg" xmlns:xlink="http://www.w3.org/1999/xlink" x="0px" y="0px"
	 width="154.014px" height="154.015px" viewBox="0 0 154.014 154.015" enable-background="new 0 0 154.014 154.015"
	 xml:space="preserve">
<g>
	<path fill="#5A4A58" d="M77.007,0C34.477,0,0,34.478,0,77.008c0,42.529,34.478,77.007,77.007,77.007
		c42.529,0,77.007-34.478,77.007-77.007C154.014,34.478,119.536,0,77.007,0z M77.007,152.01c-41.422,0-75.001-33.58-75.001-75.002
		c0-41.423,33.579-75.001,75.001-75.001c41.421,0,75.001,33.579,75.001,75.001C152.008,118.43,118.428,152.01,77.007,152.01z"/>
	<path fill="#FFFFFF" d="M77.007,2.006c-41.422,0-75.001,33.579-75.001,75.001c0,41.422,33.579,75.002,75.001,75.002
		c41.421,0,75.001-33.58,75.001-75.002C152.008,35.585,118.428,2.006,77.007,2.006z M77.189,151.01
		c-19.696,0-37.608-7.604-50.991-20.02c3.031-0.795,6.5-1.508,10.516-2.102c24.299-3.598,20.785-16.422,21.581-16.023
		c-0.147-4.863-0.196-11.432-0.196-11.432s-9.733-5.631-13.46-16.275c-7.822-3.15-6.79-5.178-7.549-9.246
		c0,0-2.375-16.51,2.908-16.17c0,0,2.939,0,2.099-3.788c-0.28-6.316-0.174-18.153,0.245-22.362
		c0.419-4.212,3.534-15.579,12.35-17.265c8.817-1.683,5.283-0.079,8.222-0.499c2.939-0.421,2.099-2.868,7.557-2.868l11.252-2.418
		c5.457,0,8.957,7.634,11.895,8.056c2.939,0.421,3.725-0.692,9.741,0.432c8.816,1.685,8.184,13.72,8.604,17.931
		c0.42,4.21,0.699,16.045-0.139,19.835c-0.842,3.79,1.783,2.944,1.783,2.944c5.537-0.085,3.813,16.595,3.813,16.595
		c-0.971,4.279-3.203,4.797-9.068,8.508c-3.725,10.646-11.974,17.178-11.974,17.178s-0.256,8.123-0.299,10.039
		c0.168,0.758-3.717,13.402,19.905,16.83c4.594,0.68,8.494,1.514,11.834,2.447C114.475,143.551,96.705,151.01,77.189,151.01z"/>
	<path fill="#5A4A58" d="M96.078,112.059c0.043-1.916,0.299-10.039,0.299-10.039s8.249-6.531,11.974-17.178
		c5.865-3.711,8.098-4.229,9.068-8.508c0,0,1.725-16.68-3.813-16.595c0,0-2.625,0.846-1.783-2.944
		c0.838-3.79,0.559-15.625,0.139-19.835c-0.42-4.211,0.213-16.246-8.604-17.931c-6.017-1.124-6.802-0.011-9.741-0.432
		c-2.938-0.421-6.438-8.056-11.895-8.056L70.47,12.959c-5.458,0-4.618,2.447-7.557,2.868c-2.939,0.42,0.595-1.184-8.222,0.499
		c-8.816,1.686-11.931,13.053-12.35,17.265c-0.419,4.209-0.525,16.046-0.245,22.362c0.84,3.788-2.099,3.788-2.099,3.788
		c-5.283-0.34-2.908,16.17-2.908,16.17c0.759,4.068-0.273,6.096,7.549,9.246c3.727,10.645,13.46,16.275,13.46,16.275
		s0.049,6.568,0.196,11.432c-0.796-0.398,2.718,12.426-21.581,16.023c-4.016,0.594-7.485,1.307-10.516,2.102
		c13.383,12.416,31.295,20.02,50.991,20.02c19.516,0,37.286-7.459,50.628-19.674c-3.34-0.934-7.24-1.768-11.834-2.447
		C92.361,125.461,96.246,112.816,96.078,112.059z"/>
</g>
</svg>
