<?xml version="1.0" encoding="utf-8"?>
<!-- Generator: Adobe Illustrator 16.0.0, SVG Export Plug-In . SVG Version: 6.00 Build 0)  -->
<!DOCTYPE svg PUBLIC "-//W3C//DTD SVG 1.1//EN" "http://www.w3.org/Graphics/SVG/1.1/DTD/svg11.dtd">
<svg version="1.1" id="Capa_1" xmlns="http://www.w3.org/2000/svg" xmlns:xlink="http://www.w3.org/1999/xlink" x="0px" y="0px"
	 width="154.014px" height="154.015px" viewBox="0 0 154.014 154.015" enable-background="new 0 0 154.014 154.015"
	 xml:space="preserve">
<path fill-rule="evenodd" clip-rule="evenodd" fill="#5A4A58" d="M77.007,0c42.529,0,77.007,34.478,77.007,77.008
	c0,42.529-34.478,77.007-77.007,77.007C34.478,154.015,0,119.537,0,77.008C0,34.478,34.478,0,77.007,0z"/>
<path fill-rule="evenodd" clip-rule="evenodd" fill="#FFFFFF" d="M77.007,2.006c41.422,0,75.002,33.579,75.002,75.001
	c0,41.422-33.58,75.002-75.002,75.002c-41.422,0-75.001-33.58-75.001-75.002C2.006,35.585,35.585,2.006,77.007,2.006z"/>
<path fill-rule="evenodd" clip-rule="evenodd" fill="#5A4A58" d="M36.715,128.889c-4.016,0.594-7.485,1.307-10.516,2.102
	c13.383,12.416,31.295,20.02,50.991,20.02c19.515,0,37.287-7.459,50.627-19.674c-3.34-0.934-7.24-1.768-11.834-2.447
	c-23.622-3.428-19.737-16.072-19.905-16.83c0.043-1.916,0.299-10.039,0.299-10.039s8.25-6.531,11.975-17.178
	c5.865-3.711,8.097-4.229,9.067-8.508c0,0,1.725-16.68-3.812-16.595c0,0-2.625,0.846-1.783-2.944
	c0.838-3.79,0.559-15.625,0.139-19.835c-0.42-4.211,0.213-16.246-8.604-17.931c-6.018-1.124-6.803-0.011-9.742-0.432
	c-2.938-0.421-6.438-8.056-11.895-8.056l-11.251,2.418c-5.458,0-4.618,2.447-7.557,2.868c-2.939,0.42,0.595-1.184-8.222,0.499
	c-8.816,1.686-11.931,13.053-12.35,17.265c-0.419,4.209-0.525,16.046-0.245,22.362c0.84,3.788-2.099,3.788-2.099,3.788
	c-5.283-0.34-2.908,16.17-2.908,16.17c0.759,4.069-0.273,6.096,7.549,9.247c3.727,10.645,13.46,16.275,13.46,16.275
	s0.049,6.568,0.196,11.432C57.5,112.467,61.014,125.291,36.715,128.889z"/>
</svg>
