<?xml version="1.0" encoding="utf-8"?>
<!-- Generator: Adobe Illustrator 16.0.0, SVG Export Plug-In . SVG Version: 6.00 Build 0)  -->
<!DOCTYPE svg PUBLIC "-//W3C//DTD SVG 1.1//EN" "http://www.w3.org/Graphics/SVG/1.1/DTD/svg11.dtd">
<svg version="1.1" xmlns="http://www.w3.org/2000/svg" xmlns:xlink="http://www.w3.org/1999/xlink" x="0px" y="0px"
	 width="154.014px" height="154.015px" viewBox="0 0 154.014 154.015" enable-background="new 0 0 154.014 154.015"
	 xml:space="preserve">
<g id="Capa_3">
	<path fill-rule="evenodd" clip-rule="evenodd" fill="#584956" d="M77.007,0c42.529,0,77.007,34.478,77.007,77.008
		c0,42.529-34.478,77.007-77.007,77.007C34.477,154.015,0,119.537,0,77.008C0,34.478,34.477,0,77.007,0z"/>
</g>
<g id="Capa_4">
	<path fill-rule="evenodd" clip-rule="evenodd" fill="#FFFFFF" d="M77.007,2.006c41.422,0,75.002,33.579,75.002,75.001
		c0,41.422-33.58,75.002-75.002,75.002S2.005,118.43,2.005,77.008C2.005,35.585,35.585,2.006,77.007,2.006z"/>
</g>
<g id="Capa_2">
	<path fill-rule="evenodd" clip-rule="evenodd" fill="#584956" d="M37.033,121.635c-6.862,1.017-12.155,2.376-16.324,3.901
		c13.744,15.611,33.864,25.474,56.298,25.474c22.352,0,42.407-9.789,56.147-25.3c-4.279-1.596-9.731-3.021-16.851-4.075
		c-23.621-3.42-19.74-16.068-19.91-16.83c0.049-1.908,0.299-10.039,0.299-10.039s8.25-6.529,11.98-17.171
		c5.859-3.709,8.09-4.229,9.061-8.51c0,0,1.729-16.68-3.811-16.6c0,0-2.619,0.85-1.779-2.94s0.559-15.63,0.139-19.84
		s0.211-16.24-8.609-17.93c-6.01-1.12-6.801-0.01-9.74-0.43s-6.439-8.05-11.891-8.05l-11.249,2.41c-5.46,0-4.62,2.45-7.56,2.87
		s0.59-1.18-8.22,0.5c-8.82,1.69-11.93,13.05-12.35,17.27c-0.42,4.21-0.53,16.04-0.25,22.36c0.84,3.79-2.1,3.79-2.1,3.79
		c-5.28-0.34-2.9,16.17-2.9,16.17c0.75,4.07-0.28,6.09,7.54,9.24c3.73,10.649,13.46,16.28,13.46,16.28s0.05,6.57,0.2,11.43
		C57.813,105.215,61.333,118.045,37.033,121.635z"/>
</g>
</svg>
